<svg width="16" height="16" viewBox="0 0 16 16" fill="none" xmlns="http://www.w3.org/2000/svg">
<circle cx="8" cy="8" r="8" fill="white"/>
<path d="M13 10.5773C13 11.548 12.6948 12.3611 12.0845 13.0167C11.4748 13.672 10.7164 13.9998 9.80941 14H7.1359V9.35524H8.86157V12.3078H9.80941C10.2662 12.3078 10.6384 12.1496 10.926 11.833C11.2141 11.5176 11.3579 11.099 11.3574 10.5773C11.3574 10.0555 11.2136 9.63652 10.926 9.32021C10.6386 9.00414 10.2664 8.8461 9.80941 8.84609H6.18804C5.68102 8.85391 5.17964 8.73437 4.72628 8.4976C4.69709 8.48239 4.66791 8.46586 4.63936 8.44933C4.37079 8.29249 4.12599 8.09506 3.91293 7.86345C3.33447 7.24702 3.00732 6.42118 3 5.55895V5.29374C3.02539 4.37921 3.32971 3.60906 3.91296 2.9833C4.52265 2.328 5.28101 2.00023 6.18804 2H8.86157V6.6454H7.1359V3.69218H6.18804C5.73125 3.69218 5.35905 3.85023 5.07145 4.16631C4.78341 4.48241 4.63939 4.90121 4.63939 5.42272C4.63939 5.94511 4.78341 6.36413 5.07145 6.67977C5.35884 6.99587 5.73104 7.15414 6.18804 7.15458H9.80941C10.7167 7.15458 11.475 7.4819 12.0845 8.13656C12.6948 8.79188 13 9.60546 13 10.5773Z" fill="#4A4A4A"/>
</svg>
