<svg width="1024" height="1578" viewBox="0 0 1024 1578" fill="none" xmlns="http://www.w3.org/2000/svg">
<path opacity="0.2" d="M-366.274 562.776C-507.272 778.835 -204.224 927.99 -98.4525 762.116C117.799 422.983 -137.271 376.97 86.0241 156.916C239.61 5.55912 235.717 -127.852 344.514 231.041C434.138 526.69 19.776 837.359 -19.0582 894.4C-183.773 1136.33 229.296 1381.69 521.56 962.25C813.825 542.806 881.831 448.564 1009.38 728.196C1136.93 1007.83 541.953 1154.52 480.172 1344.69C408.653 1564.82 901.609 1221.89 1004.99 1148.12C1017.56 1139.15 1031.56 1133.19 1046.93 1131.61C1116.61 1124.48 1305.76 1120.8 1078.23 1331.67C957.956 1443.13 779.2 1537.96 847.199 1576" stroke="#4A4A4A" stroke-width="3" stroke-linecap="round" stroke-dasharray="10 10"/>
</svg>
